# xmcd
#
# Track frame offsets: 
#        150
#        8377
#        19702
#        51598
#        65787
#        78267
#        87357
#        104323
#        116683
#        131960
#        143175
#        151339
#        164250
#        178274
#        190400
#        200705
#        212488
#        227703
#        242205
#        252968
#        262167
#        270710
#        286521
#        301807
#
# Disc length: 4270 seconds
#
# Revision: 0
# Processed by: cddbd v1.5.2PL0 Copyright (c) Steve Scherf et al.
# Submitted via: ExactAudioCopy v0.99pb4
#
DISCID=5d10ac18
DTITLE=Bob Dylan Johnny Cash - Dylan and Cash 1969
DYEAR=1969
DGENRE=Folk/Rock
TTITLE0=Good Ol' Mountain Dew
TTITLE1=I Still Miss Someone
TTITLE2=Careless Love
TTITLE3=Matchbox
TTITLE4=That's Alright Mama
TTITLE5=Big River
TTITLE6=Girl of the North Country
TTITLE7=I Walk the Line
TTITLE8=You Are My Sunshine
TTITLE9=Ring of Fire
TTITLE10=Guess Things Happen That Way
TTITLE11=Just A Closer Walk with Thee
TTITLE12=Blue Yodel #1
TTITLE13=Blue Yodel #2
TTITLE14=I Threw It All Away 1
TTITLE15=Living The Blues
TTITLE16=Girl of North Country 2
TTITLE17=Nashville Skyline Rag
TTITLE18=I threw it All Away 2
TTITLE19=Peggy Day
TTITLE20=Country Pie
TTITLE21=Tonight I'll Be Staying Here With You
TTITLE22=One Too Many Mornings 1
TTITLE23=One Too Many Mornings 2
EXTD=
EXTT0=
EXTT1=
EXTT2=
EXTT3=
EXTT4=
EXTT5=
EXTT6=
EXTT7=
EXTT8=
EXTT9=
EXTT10=
EXTT11=
EXTT12=
EXTT13=
EXTT14=
EXTT15=
EXTT16=
EXTT17=
EXTT18=
EXTT19=
EXTT20=
EXTT21=
EXTT22=
EXTT23=
PLAYORDER=
